<svg width="32" height="32" viewBox="0 0 32 32" fill="none" xmlns="http://www.w3.org/2000/svg">
<path d="M29.3333 24.0067C29.3333 24.74 28.7386 25.3333 28.0066 25.3333H17.3266C16.9748 25.3333 16.6373 25.1935 16.3885 24.9447C16.1397 24.696 16 24.3585 16 24.0067C16 23.6548 16.1397 23.3174 16.3885 23.0686C16.6373 22.8198 16.9748 22.68 17.3266 22.68H28.0066C28.74 22.68 29.3333 23.2733 29.3333 24.0067ZM29.3333 16C29.3333 16.7333 28.7386 17.3267 28.0066 17.3267H3.99329C3.64144 17.3267 3.304 17.1869 3.0552 16.9381C2.8064 16.6893 2.66663 16.3518 2.66663 16C2.66663 15.6481 2.8064 15.3107 3.0552 15.0619C3.304 14.8131 3.64144 14.6733 3.99329 14.6733H28.0066C28.74 14.6733 29.3333 15.268 29.3333 16ZM28.0066 9.31999C28.3585 9.31999 28.6959 9.18022 28.9447 8.93142C29.1935 8.68262 29.3333 8.34518 29.3333 7.99332C29.3333 7.64147 29.1935 7.30403 28.9447 7.05523C28.6959 6.80643 28.3585 6.66666 28.0066 6.66666H11.9933C11.8191 6.66666 11.6466 6.70097 11.4856 6.76764C11.3246 6.83431 11.1784 6.93204 11.0552 7.05523C10.932 7.17842 10.8343 7.32467 10.7676 7.48563C10.7009 7.64659 10.6666 7.8191 10.6666 7.99332C10.6666 8.16754 10.7009 8.34006 10.7676 8.50102C10.8343 8.66198 10.932 8.80823 11.0552 8.93142C11.1784 9.05461 11.3246 9.15233 11.4856 9.219C11.6466 9.28567 11.8191 9.31999 11.9933 9.31999H28.0066Z" fill="#000"/>
</svg>
